<svg width="49" height="40" viewBox="0 0 49 40" fill="none" xmlns="http://www.w3.org/2000/svg">
<path d="M35.313 2.18722L17.213 0.0502155C15.2965 -0.175446 13.3685 0.365299 11.849 1.55467C10.3294 2.74404 9.34131 4.48567 9.09998 6.40021L6.94898 24.3902C6.73128 26.3059 7.28146 28.2299 8.47907 29.7408C9.67669 31.2518 11.4242 32.2267 13.339 32.4522L31.439 34.5892C33.3554 34.8149 35.2834 34.2741 36.803 33.0848C38.3226 31.8954 39.3107 30.1538 39.552 28.2392L41.703 10.2492C41.9201 8.33361 41.3698 6.40996 40.1722 4.89911C38.9747 3.38825 37.2276 2.41319 35.313 2.18722Z" fill="#FFE922"/>
<path d="M46.41 32.2982L39.696 26.9982L39.553 28.1982C39.3193 30.1191 38.3349 31.8695 36.8147 33.0668C35.2945 34.2642 33.3622 34.8111 31.44 34.5882L13.34 32.4372C12.0603 32.2814 10.8445 31.7903 9.81567 31.0136C8.78681 30.237 7.98141 29.2022 7.48099 28.0142L1.56499 32.5322C-1.34301 34.8582 0.064985 39.9092 3.62399 39.9322L44.54 39.9972C48.387 40.0292 49.775 34.3262 46.41 32.2982Z" fill="#67C3EA"/>
<path d="M13.339 32.4392L31.439 34.5902C33.3611 34.8126 35.2931 34.2654 36.8132 33.0682C38.3332 31.871 39.3178 30.1209 39.552 28.2002L39.695 27.0002L26.261 16.3812C25.6552 16.0174 24.9513 15.8509 24.2467 15.9046C23.5421 15.9584 22.8716 16.2297 22.328 16.6812L7.48198 28.0192C7.98213 29.2068 8.78727 30.241 9.81582 31.0172C10.8444 31.7934 12.0598 32.284 13.339 32.4392V32.4392Z" fill="url(#paint0_linear_1_3)"/>
<defs>
<linearGradient id="paint0_linear_1_3" x1="8.83493" y1="29.4092" x2="29.9218" y2="16.3793" gradientUnits="userSpaceOnUse">
<stop stop-color="#29ABE2"/>
<stop offset="1" stop-color="#29ABE2" stop-opacity="0.302"/>
</linearGradient>
</defs>
</svg>
